<svg width="15" height="17" fill="none" xmlns="http://www.w3.org/2000/svg"><g clip-path="url('#clip0_1_10795')" fill="#262431"><path d="M13.374 12.14c-1.161-.88-2.89-1.406-3.254-1.984-.467-.742-.237-3.067-2.777-3.067-2.541 0-2.258 2.733-2.873 3.358-.836.85-1.976.843-3.16 1.694-1.339.962-.894 2.6.09 3.671 1.986 2.164 4.43-.258 5.943-.258 1.512 0 3.978 2.867 5.753.525 1.31-1.726 1.116-3.303.278-3.938ZM1.627 10.335c.898 0 1.627-1.323 1.627-2.956s-.729-2.957-1.627-2.957C.728 4.422 0 5.746 0 7.38c0 1.633.728 2.956 1.627 2.956ZM13.156 10.463c.898 0 1.627-1.324 1.627-2.956 0-1.633-.729-2.957-1.627-2.957-.899 0-1.627 1.324-1.627 2.957 0 1.632.728 2.956 1.627 2.956ZM5.26 5.72c.868 0 1.573-1.28 1.573-2.86C6.833 1.28 6.128 0 5.259 0c-.87 0-1.574 1.28-1.574 2.86 0 1.58.705 2.86 1.574 2.86ZM9.253 5.72c.87 0 1.574-1.28 1.574-2.86 0-1.58-.704-2.86-1.574-2.86C8.384 0 7.68 1.28 7.68 2.86c0 1.58.705 2.86 1.574 2.86Z"/></g><defs><clipPath id="clip0_1_10795"><path fill="#fff" d="M0 0h14.783v17H0z"/></clipPath></defs></svg>