<svg width="24" height="20" version="1.1" viewBox="0 0 24 20" xmlns="http://www.w3.org/2000/svg"><path d="m9 3.5c-1.6568 0-3 1.3432-3 3s1.3432 3 3 3zm1 0v6h4v-6zm5 0v6h3v-6zm4 0v6c1.6568 0 3-1.3432 3-3s-1.3432-3-3-3zm-12 7c-1.6568 0-3 1.3432-3 3s1.3432 3 3 3zm1 0v6h3v-6zm4 0v6c1.6568 0 3-1.3432 3-3s-1.3432-3-3-3zm7 0c-1.6568 0-3 1.3432-3 3s1.3432 3 3 3h0.5v-6zm1.5 0v6h0.5c1.6568 0 3-1.3432 3-3s-1.3432-3-3-3z" fill="#fff" fill-opacity=".4" shape-rendering="auto" style="isolation:auto;mix-blend-mode:normal;text-decoration-color:#000000;text-decoration-line:none;text-decoration-style:solid;text-indent:0;text-transform:none;white-space:normal"/></svg>
