<svg width="1280" height="512" viewBox="0 0 1280 512" fill="none" xmlns="http://www.w3.org/2000/svg">
<rect width="1280" height="512" fill="white"/>
<rect x="168" y="81" width="45" height="350" fill="#D9D9D9"/>
<rect x="168" y="386" width="150" height="45" fill="#D9D9D9"/>
<path d="M383 81H583V331C583 386.228 538.228 431 483 431C427.772 431 383 386.228 383 331V81Z" fill="#D9D9D9"/>
<path d="M428 70H538V331C538 361.376 513.376 386 483 386V386C452.624 386 428 361.376 428 331V70Z" fill="white"/>
<path d="M913 181C913 125.772 957.772 81 1013 81C1068.23 81 1113 125.772 1113 181V331C1113 386.228 1068.23 431 1013 431C957.772 431 913 386.228 913 331V181Z" fill="#D9D9D9"/>
<path d="M958 181C958 150.624 982.624 126 1013 126C1043.38 126 1068 150.624 1068 181V331C1068 361.376 1043.38 386 1013 386C982.624 386 958 361.376 958 331V181Z" fill="white"/>
<rect x="648" y="81" width="45" height="350" fill="#D9D9D9"/>
<path d="M648 281V181V131V81H698H748C803.228 81 848 125.772 848 181C848 236.228 803.228 281 748 281H648Z" fill="#D9D9D9"/>
<path d="M643 236V126L748 126C778.376 126 803 150.624 803 181V181C803 211.376 778.376 236 748 236H643Z" fill="white"/>
<circle cx="483" cy="330" r="45" fill="url(#paint0_linear_201_2)"/>
<circle cx="748" cy="181" r="45" fill="url(#paint1_linear_201_2)"/>
<defs>
<linearGradient id="paint0_linear_201_2" x1="483" y1="114" x2="483" y2="477.5" gradientUnits="userSpaceOnUse">
<stop stop-color="#FFC6F9"/>
<stop offset="1" stop-color="#B3DAFF"/>
</linearGradient>
<linearGradient id="paint1_linear_201_2" x1="659.5" y1="181" x2="895" y2="181" gradientUnits="userSpaceOnUse">
<stop stop-color="#FFC6C6"/>
<stop offset="1" stop-color="#DDB3FF"/>
</linearGradient>
</defs>
</svg>
