<svg width="15" height="17" fill="none" xmlns="http://www.w3.org/2000/svg"><g clip-path="url('#clip0_1_10767')" fill="#CCC"><path d="M13.528 12.14c-1.162-.88-2.891-1.406-3.254-1.984-.467-.742-.237-3.067-2.778-3.067-2.54 0-2.257 2.733-2.872 3.358-.836.85-1.977.843-3.16 1.694-1.339.962-.894 2.6.09 3.671 1.986 2.164 4.43-.258 5.942-.258 1.513 0 3.98 2.867 5.754.525 1.31-1.726 1.116-3.303.278-3.938ZM1.78 10.335c.9 0 1.627-1.323 1.627-2.956S2.68 4.422 1.781 4.422C.882 4.422.154 5.746.154 7.38c0 1.633.728 2.956 1.627 2.956ZM13.31 10.463c.898 0 1.627-1.324 1.627-2.956 0-1.633-.729-2.957-1.627-2.957-.899 0-1.627 1.324-1.627 2.957 0 1.632.728 2.956 1.627 2.956ZM5.413 5.72c.87 0 1.574-1.28 1.574-2.86C6.987 1.28 6.282 0 5.413 0c-.87 0-1.574 1.28-1.574 2.86 0 1.58.705 2.86 1.574 2.86ZM9.407 5.72c.87 0 1.574-1.28 1.574-2.86 0-1.58-.705-2.86-1.574-2.86-.87 0-1.574 1.28-1.574 2.86 0 1.58.705 2.86 1.574 2.86Z"/></g><defs><clipPath id="clip0_1_10767"><path fill="#fff" transform="translate(.154)" d="M0 0h14.783v17H0z"/></clipPath></defs></svg>